# xmcd CD database file
#
# Track frame offsets:
#	182
#	23140
#	48210
#	69847
#	90380
#	108112
#	128932
#	156880
#	175730
#	196992
#	216482
#	235332
#	253187
#	272852
#
# Disc length: 3928 seconds
#
# Revision: 0
# Processed by: cddbd v1.4PL0 Copyright (c) Steve Scherf et al.
# Submitted via: CDex 1.50beta10
#
DISCID=be0f560e
DTITLE=AA.VV - La Noche Cubana
DYEAR=1900
DGENRE=Salsa
TTITLE0=Alfredo De La Fe - Spain Rumba
TTITLE1=Fruko y Sus Tesos - Fruko, Que Banda Tiene Usted
TTITLE2=Los Titanes - Por Retenerte
TTITLE3=Joe Arroyo y La Verdad - La Guerra de Los Callados
TTITLE4=Los Nemus del Pacifico - Por Telefono
TTITLE5=Alexis Murillo - No la Llores Mas
TTITLE6=Orquesta La Sabrosura - Tu Amigo Tu Amante
TTITLE7=Alexis Murillo - La Mujer es Para Quererla
TTITLE8=Los Titanes - Tu la Pagaras
TTITLE9=El Nene y Sus Treviesos - Oye Rumbero
TTITLE10=Oscar Rizo y Conjunto Barroco - Porque te Vas
TTITLE11=Alexis Murillo - Lindas y Bellas
TTITLE12=Los Niches - Celos
TTITLE13=Diana - La Soledad
EXTD=
EXTT0=
EXTT1=
EXTT2=
EXTT3=
EXTT4=
EXTT5=
EXTT6=
EXTT7=
EXTT8=
EXTT9=
EXTT10=
EXTT11=
EXTT12=
EXTT13=
PLAYORDER=
